<svg id="Camada_1" data-name="Camada 1" xmlns="http://www.w3.org/2000/svg" xmlns:xlink="http://www.w3.org/1999/xlink" viewBox="0 0 1920 1257.47"><defs><style>.cls-1,.cls-10,.cls-11,.cls-12,.cls-13,.cls-14,.cls-15,.cls-16,.cls-17,.cls-18,.cls-2,.cls-22,.cls-23,.cls-24,.cls-25,.cls-26,.cls-27,.cls-28,.cls-29,.cls-3,.cls-30,.cls-4,.cls-5,.cls-6,.cls-7,.cls-8,.cls-9{fill:none;stroke-width:0.5px;}.cls-1,.cls-10,.cls-11,.cls-2,.cls-3,.cls-4,.cls-5,.cls-6,.cls-7,.cls-8,.cls-9{stroke-linecap:round;stroke-linejoin:round;}.cls-1{stroke:url(#Gradiente_sem_nome_10);}.cls-2{stroke:url(#Gradiente_sem_nome_10-2);}.cls-3{stroke:url(#Gradiente_sem_nome_10-3);}.cls-4{stroke:url(#Gradiente_sem_nome_10-4);}.cls-5{stroke:url(#Gradiente_sem_nome_10-5);}.cls-6{stroke:url(#Gradiente_sem_nome_10-6);}.cls-7{stroke:url(#Gradiente_sem_nome_10-7);}.cls-8{stroke:url(#Gradiente_sem_nome_10-8);}.cls-9{stroke:url(#Gradiente_sem_nome_10-9);}.cls-10{stroke:url(#Gradiente_sem_nome_10-10);}.cls-11{stroke:url(#Gradiente_sem_nome_10-11);}.cls-12,.cls-13,.cls-14,.cls-15,.cls-16,.cls-17,.cls-18,.cls-22,.cls-23,.cls-24,.cls-25,.cls-26,.cls-27,.cls-28,.cls-29,.cls-30{stroke-miterlimit:10;}.cls-12{stroke:url(#Gradiente_sem_nome_10-12);}.cls-13{stroke:url(#Gradiente_sem_nome_10-13);}.cls-14{stroke:url(#Gradiente_sem_nome_10-14);}.cls-15{stroke:url(#Gradiente_sem_nome_10-15);}.cls-16{stroke:url(#Gradiente_sem_nome_10-16);}.cls-17{stroke:url(#Gradiente_sem_nome_10-17);}.cls-18{stroke:url(#Gradiente_sem_nome_10-18);}.cls-19{opacity:0.8;}.cls-20{fill:#fff;}.cls-21{opacity:0.5;}.cls-22{stroke:#0064de;}.cls-23{stroke:#00edb8;}.cls-24{stroke:url(#Gradiente_sem_nome_10-19);}.cls-25{stroke:url(#Gradiente_sem_nome_10-20);}.cls-26{stroke:url(#Gradiente_sem_nome_10-21);}.cls-27{stroke:url(#Gradiente_sem_nome_10-22);}.cls-28{stroke:url(#Gradiente_sem_nome_10-23);}.cls-29{stroke:url(#Gradiente_sem_nome_10-24);}.cls-30{stroke:url(#Gradiente_sem_nome_10-25);}</style><linearGradient id="Gradiente_sem_nome_10" x1="678.72" y1="1127.23" x2="746.22" y2="1127.23" gradientTransform="translate(1043.16)" gradientUnits="userSpaceOnUse"><stop offset="0" stop-color="#0064de"/><stop offset="0.21" stop-color="#0064de" stop-opacity="0.77"/><stop offset="0.6" stop-color="#0064de" stop-opacity="0.36"/><stop offset="0.87" stop-color="#0064de" stop-opacity="0.1"/><stop offset="1" stop-color="#0064de" stop-opacity="0"/></linearGradient><linearGradient id="Gradiente_sem_nome_10-2" x1="346.16" y1="976.6" x2="868.16" y2="976.6" xlink:href="#Gradiente_sem_nome_10"/><linearGradient id="Gradiente_sem_nome_10-3" x1="344.27" y1="976.6" x2="746.22" y2="976.6" xlink:href="#Gradiente_sem_nome_10"/><linearGradient id="Gradiente_sem_nome_10-4" x1="745.72" y1="541.28" x2="868.16" y2="541.28" xlink:href="#Gradiente_sem_nome_10"/><linearGradient id="Gradiente_sem_nome_10-5" x1="446.38" y1="414.89" x2="868.16" y2="414.89" xlink:href="#Gradiente_sem_nome_10"/><linearGradient id="Gradiente_sem_nome_10-6" x1="325.85" y1="691.91" x2="868.16" y2="691.91" xlink:href="#Gradiente_sem_nome_10"/><linearGradient id="Gradiente_sem_nome_10-7" x1="169.71" y1="917.87" x2="346.66" y2="917.87" xlink:href="#Gradiente_sem_nome_10"/><linearGradient id="Gradiente_sem_nome_10-8" x1="384.85" y1="287.87" x2="807.19" y2="287.87" xlink:href="#Gradiente_sem_nome_10"/><linearGradient id="Gradiente_sem_nome_10-9" x1="-125.53" y1="590.53" x2="868.16" y2="590.53" xlink:href="#Gradiente_sem_nome_10"/><linearGradient id="Gradiente_sem_nome_10-10" x1="-447.64" y1="1062.13" x2="12.84" y2="1062.13" xlink:href="#Gradiente_sem_nome_10"/><linearGradient id="Gradiente_sem_nome_10-11" x1="-408.94" y1="1184.04" x2="-293.54" y2="1184.04" xlink:href="#Gradiente_sem_nome_10"/><linearGradient id="Gradiente_sem_nome_10-12" x1="85.09" y1="654.87" x2="170.25" y2="654.87" xlink:href="#Gradiente_sem_nome_10"/><linearGradient id="Gradiente_sem_nome_10-13" x1="-365.8" y1="902.82" x2="-263.02" y2="902.82" xlink:href="#Gradiente_sem_nome_10"/><linearGradient id="Gradiente_sem_nome_10-14" x1="-230.26" y1="840.56" x2="-142.79" y2="840.56" xlink:href="#Gradiente_sem_nome_10"/><linearGradient id="Gradiente_sem_nome_10-15" x1="-125.77" y1="622.87" x2="-61.12" y2="622.87" xlink:href="#Gradiente_sem_nome_10"/><linearGradient id="Gradiente_sem_nome_10-16" x1="66.15" y1="437.92" x2="408.51" y2="437.92" xlink:href="#Gradiente_sem_nome_10"/><linearGradient id="Gradiente_sem_nome_10-17" x1="532.78" y1="183.81" x2="657.58" y2="183.81" xlink:href="#Gradiente_sem_nome_10"/><linearGradient id="Gradiente_sem_nome_10-18" x1="84.95" y1="107.18" x2="255.81" y2="107.18" xlink:href="#Gradiente_sem_nome_10"/><linearGradient id="Gradiente_sem_nome_10-19" x1="-667.14" y1="1124.15" x2="-408.52" y2="1124.15" xlink:href="#Gradiente_sem_nome_10"/><linearGradient id="Gradiente_sem_nome_10-20" x1="-798.51" y1="1124.26" x2="-408.28" y2="1124.26" xlink:href="#Gradiente_sem_nome_10"/><linearGradient id="Gradiente_sem_nome_10-21" x1="-1043.35" y1="1154.61" x2="-797.49" y2="1154.61" xlink:href="#Gradiente_sem_nome_10"/><linearGradient id="Gradiente_sem_nome_10-22" x1="-798.13" y1="1191.06" x2="-557.94" y2="1191.06" xlink:href="#Gradiente_sem_nome_10"/><linearGradient id="Gradiente_sem_nome_10-23" x1="-856.64" y1="948.44" x2="-765.37" y2="948.44" xlink:href="#Gradiente_sem_nome_10"/><linearGradient id="Gradiente_sem_nome_10-24" x1="-656.26" y1="852.7" x2="-527.81" y2="852.7" xlink:href="#Gradiente_sem_nome_10"/><linearGradient id="Gradiente_sem_nome_10-25" x1="-983.81" y1="988.64" x2="-954.31" y2="988.64" xlink:href="#Gradiente_sem_nome_10"/></defs><line class="cls-1" x1="1789.12" y1="1013.62" x2="1722.13" y2="1240.85"/><polyline class="cls-2" points="1789.12 1013.62 1911.06 891.06 1789.12 712.34 1668.51 911.49 1522.98 957.45 1389.56 947.23 1620 1240.85 1668.51 911.49 1668.51 1240.85 1789.12 1013.62 1668.51 911.49 1911.06 980.42 1789.12 1013.62 1911.06 1240.85"/><polygon class="cls-3" points="1789.12 712.34 1522.98 957.45 1620 1240.85 1387.67 1127.23 1389.56 947.23 1789.12 712.34"/><polygon class="cls-4" points="1789.12 712.34 1911.06 548.94 1850.09 370.21 1789.12 712.34"/><polyline class="cls-5" points="1911.06 548.94 1489.79 426.38 1850.09 370.21 1911.06 280.85"/><polyline class="cls-6" points="1789.12 712.34 1489.79 426.38 1588.4 663.83 1369.26 686.81 1522.98 957.45 1588.4 663.83 1789.12 712.34 1911.06 829.79"/><polyline class="cls-7" points="1369.26 686.81 1213.11 809.36 1389.56 947.23 1232.11 1148.94 1387.67 1127.23"/><polyline class="cls-8" points="1850.09 370.21 1767.12 149.36 1686.7 325.53 1428.25 306.38 1489.79 426.38"/><polyline class="cls-9" points="1911.06 0 1767.12 149.36 1911.06 171.06 1850.09 370.21 1686.7 325.53 1489.79 426.38 1369.26 686.81 1389.56 947.23 1055.74 976.6 1232.11 1148.94 986.81 1181.06 1055.74 976.6 1213.11 809.36 917.87 883.4 986.81 1181.06"/><polyline class="cls-10" points="1055.74 976.6 917.87 883.4 749.36 1127.23 986.81 1181.06 780.53 1082.13 595.76 1141.28 749.36 1127.23 884.68 1240.85 986.81 1181.06 1048.09 1240.85 1055.74 976.6"/><line class="cls-11" x1="749.36" y1="1127.23" x2="634.47" y2="1240.85"/><polygon class="cls-12" points="1128.59 656.17 1201.89 737.87 1213.11 571.91 1128.59 656.17"/><polyline class="cls-13" points="691.91 725.11 762.13 868.09 677.87 1080 780 1013.62"/><polygon class="cls-14" points="813.19 763.4 823.4 917.87 900 852.77 813.19 763.4"/><polygon class="cls-15" points="917.87 590.53 963.83 654.89 981.7 590.53 917.87 590.53"/><polyline class="cls-16" points="1109.41 388.08 1237.72 326.81 1336.3 548.94 1451.49 437.87"/><polygon class="cls-17" points="1668.51 262.98 1576.6 104.68 1700.43 171.06 1668.51 262.98"/><polygon class="cls-18" points="1215.92 30.64 1128.59 183.83 1298.54 149.36 1215.92 30.64"/><g class="cls-19"><path class="cls-20" d="M1402.88,672.8a1.5,1.5,0,0,0,0-3,1.5,1.5,0,0,0,0,3Z"/><path class="cls-20" d="M1472.86,924.34a1.5,1.5,0,0,0,0-3,1.5,1.5,0,0,0,0,3Z"/><path class="cls-20" d="M1735.74,720.08a1.5,1.5,0,0,0,0-3,1.5,1.5,0,0,0,0,3Z"/><path class="cls-20" d="M1750.88,608.5a1.5,1.5,0,0,0,0-3,1.5,1.5,0,0,0,0,3Z"/><path class="cls-20" d="M1779.24,623.63a1.5,1.5,0,0,0,0-3,1.5,1.5,0,0,0,0,3Z"/><path class="cls-20" d="M1365.06,1117.24a1.5,1.5,0,0,0,0-3,1.5,1.5,0,0,0,0,3Z"/><path class="cls-20" d="M1340.47,1117.24a1.5,1.5,0,0,0,0-3,1.5,1.5,0,0,0,0,3Z"/><path class="cls-20" d="M748.51,1158.85a1.5,1.5,0,0,0,0-3,1.5,1.5,0,0,0,0,3Z"/><path class="cls-20" d="M771.21,1181.55a1.5,1.5,0,0,0,0-3,1.5,1.5,0,0,0,0,3Z"/><path class="cls-20" d="M1873.81,1219.37a1.5,1.5,0,0,0,0-3,1.5,1.5,0,0,0,0,3Z"/><path class="cls-20" d="M1845.44,1194.79a1.5,1.5,0,0,0,0-3,1.5,1.5,0,0,0,0,3Z"/><path class="cls-20" d="M1754.66,1009.44a1.5,1.5,0,0,0,0-3,1.5,1.5,0,0,0,0,3Z"/><path class="cls-20" d="M1792.48,1049.16a1.5,1.5,0,0,0,0-3,1.5,1.5,0,0,0,0,3Z"/><path class="cls-20" d="M1741.42,1030.25a1.5,1.5,0,0,0,0-3,1.5,1.5,0,0,0,0,3Z"/><path class="cls-20" d="M1187.28,790.06a1.5,1.5,0,0,0,0-3,1.5,1.5,0,0,0,0,3Z"/><path class="cls-20" d="M1204.3,788.17a1.5,1.5,0,0,0,0-3,1.5,1.5,0,0,0,0,3Z"/><path class="cls-20" d="M899.81,854.36a1.5,1.5,0,0,0,0-3,1.5,1.5,0,0,0,0,3Z"/><path class="cls-20" d="M1111.63,389.11a1.5,1.5,0,0,0,0-3,1.5,1.5,0,0,0,0,3Z"/><path class="cls-20" d="M1669.55,266.18a1.5,1.5,0,0,0,0-3,1.5,1.5,0,0,0,0,3Z"/><path class="cls-20" d="M1300.76,150.81a1.5,1.5,0,0,0,0-3,1.5,1.5,0,0,0,0,3Z"/><path class="cls-20" d="M1873.81,519.61a1.5,1.5,0,0,0,0-3,1.5,1.5,0,0,0,0,3Z"/><path class="cls-20" d="M1856.79,506.37a1.5,1.5,0,0,0,0-3,1.5,1.5,0,0,0,0,3Z"/><path class="cls-20" d="M1221.7,1030.44a1.5,1.5,0,0,0,0-3,1.5,1.5,0,0,0,0,3Z"/><path class="cls-20" d="M1242.13,1040.65a1.5,1.5,0,0,0,0-3,1.5,1.5,0,0,0,0,3Z"/><path class="cls-20" d="M1459.15,688.31a1.5,1.5,0,0,0,0-3,1.5,1.5,0,0,0,0,3Z"/><path class="cls-20" d="M1497.45,741.93a1.5,1.5,0,0,0,0-3,1.5,1.5,0,0,0,0,3Z"/><path class="cls-20" d="M1586.81,665.33a1.5,1.5,0,0,0,0-3,1.5,1.5,0,0,0,0,3Z"/><path class="cls-20" d="M905.11,816a1.5,1.5,0,0,0,0-3,1.5,1.5,0,0,0,0,3Z"/><path class="cls-20" d="M762.13,872.14a1.5,1.5,0,0,0,0-3,1.5,1.5,0,0,0,0,3Z"/><path class="cls-20" d="M856.6,1012.56a1.5,1.5,0,0,0,0-3,1.5,1.5,0,0,0,0,3Z"/><path class="cls-20" d="M897.45,1015.12a1.5,1.5,0,0,0,0-3,1.5,1.5,0,0,0,0,3Z"/><path class="cls-20" d="M851.49,1063.63a1.5,1.5,0,0,0,0-3,1.5,1.5,0,0,0,0,3Z"/><path class="cls-20" d="M917.87,884.9a1.5,1.5,0,0,0,0-3,1.5,1.5,0,0,0,0,3Z"/><path class="cls-20" d="M1428.51,307.88a1.5,1.5,0,0,0,0-3,1.5,1.5,0,0,0,0,3Z"/></g><g class="cls-19"><path class="cls-20" d="M1374.8,666.75a1.5,1.5,0,0,0,0-3,1.5,1.5,0,0,0,0,3Z"/><path class="cls-20" d="M1444.77,415.21a1.5,1.5,0,0,0,0-3,1.5,1.5,0,0,0,0,3Z"/><path class="cls-20" d="M1707.66,619.46a1.5,1.5,0,0,0,0-3,1.5,1.5,0,0,0,0,3Z"/><path class="cls-20" d="M1722.79,731.05a1.5,1.5,0,0,0,0-3,1.5,1.5,0,0,0,0,3Z"/><path class="cls-20" d="M1751.16,715.92a1.5,1.5,0,0,0,0-3,1.5,1.5,0,0,0,0,3Z"/><path class="cls-20" d="M1337,222.3a1.5,1.5,0,0,0,0-3,1.5,1.5,0,0,0,0,3Z"/><path class="cls-20" d="M1312.39,222.3a1.5,1.5,0,0,0,0-3,1.5,1.5,0,0,0,0,3Z"/><path class="cls-20" d="M720.42,180.69a1.5,1.5,0,0,0,0-3,1.5,1.5,0,0,0,0,3Z"/><path class="cls-20" d="M743.12,158a1.5,1.5,0,0,0,0-3,1.5,1.5,0,0,0,0,3Z"/><path class="cls-20" d="M1845.72,120.17a1.5,1.5,0,0,0,0-3,1.5,1.5,0,0,0,0,3Z"/><path class="cls-20" d="M1817.35,144.76a1.5,1.5,0,0,0,0-3,1.5,1.5,0,0,0,0,3Z"/><path class="cls-20" d="M1726.57,330.1a1.5,1.5,0,0,0,0-3,1.5,1.5,0,0,0,0,3Z"/><path class="cls-20" d="M1764.4,290.39a1.5,1.5,0,0,0,0-3,1.5,1.5,0,0,0,0,3Z"/><path class="cls-20" d="M1713.33,309.3a1.5,1.5,0,0,0,0-3,1.5,1.5,0,0,0,0,3Z"/><path class="cls-20" d="M1159.19,549.49a1.5,1.5,0,0,0,0-3,1.5,1.5,0,0,0,0,3Z"/><path class="cls-20" d="M1176.22,551.38a1.5,1.5,0,0,0,0-3,1.5,1.5,0,0,0,0,3Z"/><path class="cls-20" d="M871.72,485.19a1.5,1.5,0,0,0,0-3,1.5,1.5,0,0,0,0,3Z"/><path class="cls-20" d="M1083.54,950.43a1.5,1.5,0,0,0,0-3,1.5,1.5,0,0,0,0,3Z"/><path class="cls-20" d="M1623.59,1073.37a1.5,1.5,0,0,0,0-3,1.5,1.5,0,0,0,0,3Z"/><path class="cls-20" d="M1272.67,1188.73a1.5,1.5,0,0,0,0-3,1.5,1.5,0,0,0,0,3Z"/><path class="cls-20" d="M1845.72,819.94a1.5,1.5,0,0,0,0-3,1.5,1.5,0,0,0,0,3Z"/><path class="cls-20" d="M1828.7,833.18a1.5,1.5,0,0,0,0-3,1.5,1.5,0,0,0,0,3Z"/><path class="cls-20" d="M1193.62,309.11a1.5,1.5,0,0,0,0-3,1.5,1.5,0,0,0,0,3Z"/><path class="cls-20" d="M1214,298.9a1.5,1.5,0,0,0,0-3,1.5,1.5,0,0,0,0,3Z"/><path class="cls-20" d="M1431.06,651.24a1.5,1.5,0,0,0,0-3,1.5,1.5,0,0,0,0,3Z"/><path class="cls-20" d="M1469.36,597.62a1.5,1.5,0,0,0,0-3,1.5,1.5,0,0,0,0,3Z"/><path class="cls-20" d="M1558.72,674.22a1.5,1.5,0,0,0,0-3,1.5,1.5,0,0,0,0,3Z"/><path class="cls-20" d="M877,523.58a1.5,1.5,0,0,0,0-3,1.5,1.5,0,0,0,0,3Z"/><path class="cls-20" d="M734,467.41a1.5,1.5,0,0,0,0-3,1.5,1.5,0,0,0,0,3Z"/><path class="cls-20" d="M828.51,327a1.5,1.5,0,0,0,0-3,1.5,1.5,0,0,0,0,3Z"/><path class="cls-20" d="M869.36,324.43a1.5,1.5,0,0,0,0-3,1.5,1.5,0,0,0,0,3Z"/><path class="cls-20" d="M823.4,275.92a1.5,1.5,0,0,0,0-3,1.5,1.5,0,0,0,0,3Z"/><path class="cls-20" d="M889.79,454.64a1.5,1.5,0,0,0,0-3,1.5,1.5,0,0,0,0,3Z"/><path class="cls-20" d="M467.7,647.1a1.5,1.5,0,0,0,0-3,1.5,1.5,0,0,0,0,3Z"/><path class="cls-20" d="M490.06,670.12a1.5,1.5,0,0,0,0-3,1.5,1.5,0,0,0,0,3Z"/><path class="cls-20" d="M161,793.93a1.5,1.5,0,0,0,0-3,1.5,1.5,0,0,0,0,3Z"/><path class="cls-20" d="M332.37,1118.36a1.5,1.5,0,0,0,0-3,1.5,1.5,0,0,0,0,3Z"/><path class="cls-20" d="M122.56,798.66a1.5,1.5,0,0,0,0-3,1.5,1.5,0,0,0,0,3Z"/><path class="cls-20" d="M180.82,656.52a1.5,1.5,0,0,0,0-3,1.5,1.5,0,0,0,0,3Z"/><path class="cls-20" d="M319.85,753a1.5,1.5,0,0,0,0-3,1.5,1.5,0,0,0,0,3Z"/><path class="cls-20" d="M321.8,793.92a1.5,1.5,0,0,0,0-3,1.5,1.5,0,0,0,0,3Z"/><path class="cls-20" d="M371,748.67a1.5,1.5,0,0,0,0-3,1.5,1.5,0,0,0,0,3Z"/><path class="cls-20" d="M191.3,812.43a1.5,1.5,0,0,0,0-3,1.5,1.5,0,0,0,0,3Z"/><path class="cls-20" d="M608,969.15a1.5,1.5,0,0,0,0-3,1.5,1.5,0,0,0,0,3Z"/><path class="cls-20" d="M577.77,944.93a1.5,1.5,0,0,0,0-3,1.5,1.5,0,0,0,0,3Z"/><path class="cls-20" d="M748.22,1054.25a1.5,1.5,0,0,0,0-3,1.5,1.5,0,0,0,0,3Z"/><path class="cls-20" d="M720.33,1084.2a1.5,1.5,0,0,0,0-3,1.5,1.5,0,0,0,0,3Z"/><path class="cls-20" d="M787.06,1087.79a1.5,1.5,0,0,0,0-3,1.5,1.5,0,0,0,0,3Z"/><path class="cls-20" d="M615.93,1003.75a1.5,1.5,0,0,0,0-3,1.5,1.5,0,0,0,0,3Z"/><path class="cls-20" d="M1400.42,1031.66a1.5,1.5,0,0,0,0-3,1.5,1.5,0,0,0,0,3Z"/></g><g class="cls-21"><path class="cls-20" d="M1762.22,567.78a.5.5,0,0,0,0-1,.5.5,0,0,0,0,1Z"/><path class="cls-20" d="M1767.9,594.26a.5.5,0,0,0,0-1,.5.5,0,0,0,0,1Z"/><path class="cls-20" d="M1775.46,581a.5.5,0,0,0,0-1,.5.5,0,0,0,0,1Z"/><path class="cls-20" d="M1402.88,649.11a.5.5,0,0,0,0-1,.5.5,0,0,0,0,1Z"/><path class="cls-20" d="M1421.8,647.21a.5.5,0,0,0,0-1,.5.5,0,0,0,0,1Z"/><path class="cls-20" d="M1221.32,760.69a.5.5,0,0,0,0-1,.5.5,0,0,0,0,1Z"/><path class="cls-20" d="M1253.48,817.43a.5.5,0,0,0,0-1,.5.5,0,0,0,0,1Z"/><path class="cls-20" d="M1262.93,800.41a.5.5,0,0,0,0-1,.5.5,0,0,0,0,1Z"/><path class="cls-20" d="M1280,809.86a.5.5,0,0,0,0-1,.5.5,0,0,0,0,1Z"/><path class="cls-20" d="M744.73,1182.44a.5.5,0,0,0,0-1,.5.5,0,0,0,0,1Z"/><path class="cls-20" d="M710.69,1184.33a.5.5,0,0,0,0-1,.5.5,0,0,0,0,1Z"/><path class="cls-20" d="M1228.89,1069a.5.5,0,0,0,0-1,.5.5,0,0,0,0,1Z"/><path class="cls-20" d="M1198.63,1025.46a.5.5,0,0,0,0-1,.5.5,0,0,0,0,1Z"/><path class="cls-20" d="M1272.39,1021.68a.5.5,0,0,0,0-1,.5.5,0,0,0,0,1Z"/><path class="cls-20" d="M1255.37,923.34a.5.5,0,0,0,0-1,.5.5,0,0,0,0,1Z"/><path class="cls-20" d="M1185.39,912a.5.5,0,0,0,0-1,.5.5,0,0,0,0,1Z"/><path class="cls-20" d="M1228.89,893.08a.5.5,0,0,0,0-1,.5.5,0,0,0,0,1Z"/><path class="cls-20" d="M1009.5,898.75a.5.5,0,0,0,0-1,.5.5,0,0,0,0,1Z"/><path class="cls-20" d="M1019,921.45a.5.5,0,0,0,0-1,.5.5,0,0,0,0,1Z"/><path class="cls-20" d="M1041.66,885.51a.5.5,0,0,0,0-1,.5.5,0,0,0,0,1Z"/><path class="cls-20" d="M841.18,821.21a.5.5,0,0,0,0-1,.5.5,0,0,0,0,1Z"/><path class="cls-20" d="M865.77,842a.5.5,0,0,0,0-1,.5.5,0,0,0,0,1Z"/><path class="cls-20" d="M875.23,800.41a.5.5,0,0,0,0-1,.5.5,0,0,0,0,1Z"/><path class="cls-20" d="M1505,352.18a.5.5,0,0,0,0-1,.5.5,0,0,0,0,1Z"/><path class="cls-20" d="M1516.36,709.63a.5.5,0,0,0,0-1,.5.5,0,0,0,0,1Z"/><path class="cls-20" d="M1754.66,881.73a.5.5,0,0,0,0-1,.5.5,0,0,0,0,1Z"/><path class="cls-20" d="M1769.79,843.9a.5.5,0,0,0,0-1,.5.5,0,0,0,0,1Z"/><path class="cls-20" d="M1811.4,862.82a.5.5,0,0,0,0-1,.5.5,0,0,0,0,1Z"/><path class="cls-20" d="M1777.35,866.6a.5.5,0,0,0,0-1,.5.5,0,0,0,0,1Z"/><path class="cls-20" d="M1888.94,709.63a.5.5,0,0,0,0-1,.5.5,0,0,0,0,1Z"/><path class="cls-20" d="M1862.46,713.41a.5.5,0,0,0,0-1,.5.5,0,0,0,0,1Z"/><path class="cls-20" d="M1650.64,524.28a.5.5,0,0,0,0-1,.5.5,0,0,0,0,1Z"/><path class="cls-20" d="M1677.12,526.17a.5.5,0,0,0,0-1,.5.5,0,0,0,0,1Z"/><path class="cls-20" d="M1622.27,492.13a.5.5,0,0,0,0-1,.5.5,0,0,0,0,1Z"/><path class="cls-20" d="M1781.14,412.7a.5.5,0,0,0,0-1,.5.5,0,0,0,0,1Z"/><path class="cls-20" d="M1798.16,410.81a.5.5,0,0,0,0-1,.5.5,0,0,0,0,1Z"/><path class="cls-20" d="M1803.83,391.89a.5.5,0,0,0,0-1,.5.5,0,0,0,0,1Z"/><path class="cls-20" d="M1815.18,441.07a.5.5,0,0,0,0-1,.5.5,0,0,0,0,1Z"/><path class="cls-20" d="M1839.76,253.83a.5.5,0,0,0,0-1,.5.5,0,0,0,0,1Z"/><path class="cls-20" d="M1809.5,187.64a.5.5,0,0,0,0-1,.5.5,0,0,0,0,1Z"/><path class="cls-20" d="M1420.85,845.61a.5.5,0,0,0,0-1,.5.5,0,0,0,0,1Z"/><path class="cls-20" d="M1448.94,845.61a.5.5,0,0,0,0-1,.5.5,0,0,0,0,1Z"/><path class="cls-20" d="M1635.32,654.12a.5.5,0,0,0,0-1,.5.5,0,0,0,0,1Z"/><path class="cls-20" d="M1673.62,659.22a.5.5,0,0,0,0-1,.5.5,0,0,0,0,1Z"/><path class="cls-20" d="M1614.89,618.37a.5.5,0,0,0,0-1,.5.5,0,0,0,0,1Z"/><path class="cls-20" d="M1780.85,278.8a.5.5,0,0,0,0-1,.5.5,0,0,0,0,1Z"/><path class="cls-20" d="M1528.09,1032a.5.5,0,0,0,0-1,.5.5,0,0,0,0,1Z"/><path class="cls-20" d="M1579.15,1060.07a.5.5,0,0,0,0-1,.5.5,0,0,0,0,1Z"/><path class="cls-20" d="M1574,991.14a.5.5,0,0,0,0-1,.5.5,0,0,0,0,1Z"/><path class="cls-20" d="M1563.83,1032a.5.5,0,0,0,0-1,.5.5,0,0,0,0,1Z"/><path class="cls-20" d="M1461.7,1146.88a.5.5,0,0,0,0-1,.5.5,0,0,0,0,1Z"/><path class="cls-20" d="M1510.21,1208.16a.5.5,0,0,0,0-1,.5.5,0,0,0,0,1Z"/><path class="cls-20" d="M1694,1072.84a.5.5,0,0,0,0-1,.5.5,0,0,0,0,1Z"/><path class="cls-20" d="M1145.11,472.84a.5.5,0,0,0,0-1,.5.5,0,0,0,0,1Z"/><path class="cls-20" d="M1203.83,478a.5.5,0,0,0,0-1,.5.5,0,0,0,0,1Z"/><path class="cls-20" d="M1014.89,329.86a.5.5,0,0,0,0-1,.5.5,0,0,0,0,1Z"/><path class="cls-20" d="M989.36,143.48a.5.5,0,0,0,0-1,.5.5,0,0,0,0,1Z"/><path class="cls-20" d="M1048.09,225.18a.5.5,0,0,0,0-1,.5.5,0,0,0,0,1Z"/><path class="cls-20" d="M986.81,118a.5.5,0,0,0,0-1,.5.5,0,0,0,0,1Z"/><path class="cls-20" d="M1007.23,115.39a.5.5,0,0,0,0-1,.5.5,0,0,0,0,1Z"/><path class="cls-20" d="M848.94,197.1a.5.5,0,0,0,0-1,.5.5,0,0,0,0,1Z"/><path class="cls-20" d="M930.64,299.22a.5.5,0,0,0,0-1,.5.5,0,0,0,0,1Z"/><path class="cls-20" d="M782.55,266a.5.5,0,0,0,0-1,.5.5,0,0,0,0,1Z"/><path class="cls-20" d="M782.55,564.76a.5.5,0,0,0,0-1,.5.5,0,0,0,0,1Z"/><path class="cls-20" d="M846.38,702.63a.5.5,0,0,0,0-1,.5.5,0,0,0,0,1Z"/><path class="cls-20" d="M1507.66,613.27a.5.5,0,0,0,0-1,.5.5,0,0,0,0,1Z"/><path class="cls-20" d="M1540.85,631.14a.5.5,0,0,0,0-1,.5.5,0,0,0,0,1Z"/><path class="cls-20" d="M1515.32,651.56a.5.5,0,0,0,0-1,.5.5,0,0,0,0,1Z"/><path class="cls-20" d="M1369.79,1067.73a.5.5,0,0,0,0-1,.5.5,0,0,0,0,1Z"/><path class="cls-20" d="M1459.15,1098.37a.5.5,0,0,0,0-1,.5.5,0,0,0,0,1Z"/><path class="cls-20" d="M1502.55,1141.78a.5.5,0,0,0,0-1,.5.5,0,0,0,0,1Z"/><path class="cls-20" d="M1114.47,1100.93a.5.5,0,0,0,0-1,.5.5,0,0,0,0,1Z"/></g><path class="cls-22" d="M1056.75,1240.85a8.94,8.94,0,1,1-8.94-8.94A8.94,8.94,0,0,1,1056.75,1240.85Z"/><path class="cls-20" d="M1052.55,1240.85a4.74,4.74,0,1,1-4.74-4.73A4.73,4.73,0,0,1,1052.55,1240.85Z"/><path class="cls-22" d="M1220.57,809.57a7.46,7.46,0,1,1-7.46-7.45A7.46,7.46,0,0,1,1220.57,809.57Z"/><path class="cls-20" d="M1217.06,809.57a3.95,3.95,0,1,1-4-4A3.94,3.94,0,0,1,1217.06,809.57Z"/><path class="cls-22" d="M1531.92,957.45a8.94,8.94,0,1,1-8.94-8.94A8.94,8.94,0,0,1,1531.92,957.45Z"/><path class="cls-20" d="M1527.71,957.45a4.73,4.73,0,1,1-4.73-4.74A4.73,4.73,0,0,1,1527.71,957.45Z"/><path class="cls-22" d="M1064.68,976.6a8.94,8.94,0,1,1-8.94-8.94A8.93,8.93,0,0,1,1064.68,976.6Z"/><circle class="cls-20" cx="1055.75" cy="976.6" r="4.73"/><path class="cls-22" d="M1222.5,571.91a8.94,8.94,0,1,1-8.93-8.93A8.93,8.93,0,0,1,1222.5,571.91Z"/><path class="cls-20" d="M1218.3,571.91a4.74,4.74,0,1,1-4.73-4.73A4.74,4.74,0,0,1,1218.3,571.91Z"/><path class="cls-22" d="M1920,548.94a8.94,8.94,0,1,1-8.94-8.94A8.93,8.93,0,0,1,1920,548.94Z"/><circle class="cls-20" cx="1911.06" cy="548.94" r="4.73"/><path class="cls-22" d="M1378.19,686.81a8.94,8.94,0,1,1-8.93-8.94A8.93,8.93,0,0,1,1378.19,686.81Z"/><path class="cls-20" d="M1374,686.81a4.74,4.74,0,1,1-4.73-4.74A4.73,4.73,0,0,1,1374,686.81Z"/><path class="cls-22" d="M998.45,1181.06a11.59,11.59,0,1,1-11.59-11.59A11.59,11.59,0,0,1,998.45,1181.06Z"/><path class="cls-20" d="M993,1181.06a6.14,6.14,0,1,1-6.14-6.14A6.14,6.14,0,0,1,993,1181.06Z"/><path class="cls-22" d="M761,1127.23a11.59,11.59,0,1,1-11.59-11.59A11.59,11.59,0,0,1,761,1127.23Z"/><path class="cls-20" d="M755.5,1127.23a6.14,6.14,0,1,1-6.14-6.14A6.14,6.14,0,0,1,755.5,1127.23Z"/><path class="cls-22" d="M1501.38,426.38a11.59,11.59,0,1,1-11.59-11.59A11.59,11.59,0,0,1,1501.38,426.38Z"/><path class="cls-20" d="M1495.93,426.38a6.14,6.14,0,1,1-6.14-6.14A6.14,6.14,0,0,1,1495.93,426.38Z"/><path class="cls-22" d="M1800.72,1013.62a11.6,11.6,0,1,1-11.6-11.6A11.59,11.59,0,0,1,1800.72,1013.62Z"/><path class="cls-20" d="M1795.27,1013.62a6.15,6.15,0,1,1-6.15-6.14A6.14,6.14,0,0,1,1795.27,1013.62Z"/><path class="cls-22" d="M1805.74,712.34a16.62,16.62,0,1,1-16.62-16.62A16.62,16.62,0,0,1,1805.74,712.34Z"/><path class="cls-20" d="M1797.93,712.34a8.81,8.81,0,1,1-8.81-8.81A8.81,8.81,0,0,1,1797.93,712.34Z"/><path class="cls-22" d="M1406.18,948.51a16.62,16.62,0,1,1-16.62-16.62A16.62,16.62,0,0,1,1406.18,948.51Z"/><path class="cls-20" d="M1398.37,948.51a8.81,8.81,0,1,1-8.81-8.81A8.81,8.81,0,0,1,1398.37,948.51Z"/><path class="cls-22" d="M1866.72,370.21a16.63,16.63,0,1,1-16.63-16.62A16.63,16.63,0,0,1,1866.72,370.21Z"/><path class="cls-20" d="M1858.9,370.21a8.81,8.81,0,1,1-8.81-8.8A8.8,8.8,0,0,1,1858.9,370.21Z"/><path class="cls-23" d="M1638.51,1240.85a16.62,16.62,0,1,1-16.62-16.62A16.62,16.62,0,0,1,1638.51,1240.85Z"/><path class="cls-20" d="M1630.7,1240.85a8.81,8.81,0,1,1-8.81-8.8A8.82,8.82,0,0,1,1630.7,1240.85Z"/><polyline class="cls-24" points="595.76 1141.28 376.19 1007.48 634.47 1240.85"/><polyline class="cls-25" points="376.19 1007.48 245.12 1141.28 634.47 1240.85 595.76 1141.28"/><polyline class="cls-26" points="0 1240.85 129.38 1068.46 245.12 1141.28 0 1240.85"/><line class="cls-27" x1="485.12" y1="1240.85" x2="245.12" y2="1141.28"/><polygon class="cls-28" points="187.25 898.79 253.63 998.23 277.46 944.62 187.25 898.79"/><polygon class="cls-29" points="440.02 781.94 387.25 913.95 514.91 923.78 440.02 781.94"/><polygon class="cls-30" points="59.59 948.93 88.53 1002.02 59.59 1028.75 59.59 948.93"/></svg>