<?xml version="1.0" encoding="utf-8"?>
<!-- Generator: Adobe Illustrator 26.0.3, SVG Export Plug-In . SVG Version: 6.00 Build 0)  -->
<svg version="1.1" id="Camada_1" xmlns="http://www.w3.org/2000/svg" xmlns:xlink="http://www.w3.org/1999/xlink" x="0px" y="0px"
	 viewBox="0 0 1080 1080" style="enable-background:new 0 0 1080 1080;" xml:space="preserve">
<style type="text/css">
	.st0{fill:#0064DE;}
</style>
<g id="Op1">
	<g>
		<path class="st0" d="M1046.6,6c7.3,0,14.2,2.9,19.4,8.1c5.2,5.2,8,12,7.9,19.3v1013.1c0,15.1-12.3,27.4-27.4,27.4H33.4
			c-15.1,0-27.4-12.3-27.4-27.4V314.1c0-41.6,8.1-82,24.2-119.9c15.5-36.7,37.7-69.6,66-97.9c28.3-28.3,61.2-50.5,97.9-66
			C232.1,14.1,272.5,6,314.1,6H1046.6 M844.8,556H574.1V304.7v-6h-6h-68.9c-44.1,0-80,35.9-80,80v615v6h6h142.9h6v-6V741.6
			c0-25.9,21-46.9,46.9-46.9h248.3c-6,4.2-10.5,8.8-13.7,13c-8.1,10.3-10.6,19.9-10.7,20.4l-0.2,0.7v0.7v193.3
			c0,42.3,34.5,76.8,76.8,76.8h72h6v-6V304.7v-6h-6H850.8h-6v6V556 M1046.6,0H314.1C140.6,0,0,140.6,0,314.1v732.4
			c0,18.5,15,33.4,33.4,33.4h1013.1c18.5,0,33.4-15,33.4-33.4V33.4C1080,15,1065,0,1046.6,0L1046.6,0z M568.1,562h282.7V304.7h142.8
			v688.9h-72c-39.1,0-70.8-31.7-70.8-70.8V729.5c0,0,8.7-34.7,50.4-40.8H621c-29.2,0-52.9,23.7-52.9,52.9v252.1H425.2v-615
			c0-40.7,33.3-74,74-74h68.9V562L568.1,562z"/>
	</g>
</g>
<g id="Camada_2_00000038391897631054066620000011130423624677591973_">
</g>
</svg>
