<?xml version="1.0" encoding="utf-8"?>
<!-- Generator: Adobe Illustrator 26.0.3, SVG Export Plug-In . SVG Version: 6.00 Build 0)  -->
<svg version="1.1" id="Op1" xmlns="http://www.w3.org/2000/svg" xmlns:xlink="http://www.w3.org/1999/xlink" x="0px" y="0px"
	 viewBox="0 0 1080 1080" style="enable-background:new 0 0 1080 1080;" xml:space="preserve">
<style type="text/css">
	.st0{fill:#FFFFFF;}
	.st1{fill:url(#SVGID_1_);}
</style>
<rect x="333" y="194" class="st0" width="699" height="816"/>
<linearGradient id="SVGID_1_" gradientUnits="userSpaceOnUse" x1="-207.2906" y1="1331.0994" x2="1761.8895" y2="-748.2508" gradientTransform="matrix(1 0 0 -1 0 1082)">
	<stop  offset="0" style="stop-color:#0064DE"/>
	<stop  offset="1" style="stop-color:#0D4C99"/>
</linearGradient>
<path class="st1" d="M1046.6,0H314.1C140.6,0,0,140.6,0,314.1v732.4c0,18.5,15,33.4,33.4,33.4c0,0,0,0,0,0h1013.1
	c18.5,0,33.4-15,33.4-33.4v0V33.4C1080,15,1065,0,1046.6,0C1046.6,0,1046.6,0,1046.6,0z M993.6,993.6h-72
	c-39.1,0-70.8-31.7-70.8-70.8l0,0V729.5c0,0,8.7-34.7,50.4-40.8H621c-29.2,0-52.9,23.7-52.9,52.9c0,0,0,0,0,0v252.1H425.2v-615
	c0.1-40.8,33.2-73.9,74-74h68.9V562h282.6V304.7h142.8L993.6,993.6z"/>
</svg>
