<svg xmlns="http://www.w3.org/2000/svg" viewBox="0 0 1080 665.83"><defs><style>.cls-1{fill:#fff;}</style></defs><g id="Camada_2" data-name="Camada 2"><g id="Vertical"><path class="cls-1" d="M709.1,0H464.66A104.84,104.84,0,0,0,359.82,104.84V349.28A11.16,11.16,0,0,0,371,360.44H709.1a11.16,11.16,0,0,0,11.15-11.16V11.16A11.16,11.16,0,0,0,709.1,0ZM691.42,331.6h-24A23.64,23.64,0,0,1,643.74,308V243.45s2.91-11.57,16.82-13.62h-93.5a17.65,17.65,0,0,0-17.65,17.65V331.6H501.73V126.36a24.76,24.76,0,0,1,24.69-24.68h23v85.88h94.33V101.68h47.68Z"/><path class="cls-1" d="M16.5,418.48H31.88V475.9H95V418.48h31.88V572.22H95V504.16H43.7A11.82,11.82,0,0,0,31.88,516v56.24H0V435A16.55,16.55,0,0,1,16.5,418.48Z"/><path class="cls-1" d="M225.85,418.48,281,572.22H247.78l-10.17-31.43H178.15L168,572.22H134.29l51.32-143.57q3.39-10.17,14.92-10.17Zm-39.34,96.31h42.28l-21.25-65.34Z"/><path class="cls-1" d="M390.2,498.51c6.56,2.26,11.53,5.88,14.69,10.63,2.72,5.2,4.08,12.89,4.75,22.83L411,562c.23,4.75,2,8.14,5,10.18H381.38a22.82,22.82,0,0,1-2.49-9.27c-.67-2.26-1.13-11.08-1.35-26-1.13-18.54-4.52-24.42-23.06-24.42H321v59.69H289.59V435c0-8.81,7-16.5,15.83-16.5h58.33c31.88,0,49.51,12.21,49.51,43.86C413.26,481.78,404.89,494.44,390.2,498.51Zm-30.29-53.35H321v40.47H358.1c14.92,0,23.28-5.43,23.28-20.35C381.38,451.26,373.92,445.16,359.91,445.16Z"/><path class="cls-1" d="M554.55,495.35c0,37.75-16.27,65.79-45.89,73.7-7.69,2-18.54,3.17-32.56,3.17H424.33V435c0-10.62,5.2-16.27,15.83-16.5h44.31C533.3,418.48,554.55,446.29,554.55,495.35Zm-70.08-50H455.3v99h25.1c31.2,0,42.05-16.73,42.05-49.06C522.45,464.6,513,445.38,484.47,445.38Z"/><path class="cls-1" d="M578.74,418.48h17l62.63,105.58V418.48h31V572.22H656.51L593.88,466.64V572.22h-31V435C562.91,426.17,569.92,418.48,578.74,418.48Z"/><path class="cls-1" d="M700.13,435c0-10.62,5.2-16.27,15.83-16.5h95.4v26.68H731.11v33H791v10.17c.22,10.63-5.2,15.82-16.28,15.82H731.11V544h80.25v28.26H700.13Z"/><path class="cls-1" d="M914.23,529.49c0-7.46-4.53-12.44-14-15.15-9-2.71-19.45-5.43-30.52-8.37-30.07-7.68-45-21.7-45-42.05.67-32.33,19.89-48.15,57.87-47.93,36.18,0,54.94,15.83,56.75,47.71H921.69c-6.56,0-11.08-3.17-14-9.05-5.2-8.81-14.47-13.11-27.81-13.11-16.28.23-24.42,6.33-25.1,18.09,0,9.72,9.73,16.73,29.85,21.25a353.2,353.2,0,0,1,36.62,10.63q25.77,8.81,24.42,38c-1.81,30.07-22.16,45-61,45-40.7,0-61.27-17-62.17-50.42H853c1.13,16.28,11.53,24.42,31.65,24.42S914.45,542.15,914.23,529.49Z"/><path class="cls-1" d="M1048.51,529.49c0-7.46-4.53-12.44-14-15.15-9-2.71-19.44-5.43-30.52-8.37-30.07-7.68-45-21.7-45-42.05.68-32.33,19.89-48.15,57.87-47.93,36.18,0,54.94,15.83,56.75,47.71H1056c-6.56,0-11.08-3.17-14-9.05-5.2-8.81-14.47-13.11-27.81-13.11-16.28.23-24.42,6.33-25.09,18.09,0,9.72,9.72,16.73,29.84,21.25a354.06,354.06,0,0,1,36.63,10.63q25.77,8.81,24.41,38c-1.81,30.07-22.15,45-61,45-40.69,0-61.27-17-62.17-50.42h30.52c1.13,16.28,11.53,24.42,31.65,24.42S1048.73,542.15,1048.51,529.49Z"/><path class="cls-1" d="M34.07,661.13l2-4.16a19.22,19.22,0,0,0,12.33,4.32c6.46,0,9.24-2.51,9.24-5.76,0-9.14-22.64-3.37-22.64-17.25,0-5.77,4.48-10.69,14.31-10.69a22,22,0,0,1,12,3.32l-1.77,4.27a19.31,19.31,0,0,0-10.25-3c-6.36,0-9.08,2.67-9.08,5.93,0,9.13,22.64,3.42,22.64,17.15,0,5.71-4.59,10.62-14.47,10.62C42.67,665.83,37.06,663.91,34.07,661.13Z"/><path class="cls-1" d="M70.65,628H76v37.39H70.65Z"/><path class="cls-1" d="M83.79,661.13l2-4.16a19.25,19.25,0,0,0,12.34,4.32c6.46,0,9.24-2.51,9.24-5.76,0-9.14-22.65-3.37-22.65-17.25,0-5.77,4.49-10.69,14.31-10.69a22,22,0,0,1,12,3.32l-1.76,4.27a19.34,19.34,0,0,0-10.26-3c-6.35,0-9.08,2.67-9.08,5.93,0,9.13,22.65,3.42,22.65,17.15,0,5.71-4.59,10.62-14.47,10.62C92.39,665.83,86.78,663.91,83.79,661.13Z"/><path class="cls-1" d="M127.27,632.67H114.45V628h30.92v4.65H132.56v32.74h-5.29Z"/><path class="cls-1" d="M178.33,660.76v4.65H151.2V628h26.38v4.65h-21v11.48h18.74v4.54H156.54v12.07Z"/><path class="cls-1" d="M221.64,665.41l0-27.24-13.51,22.7h-2.46l-13.51-22.54v27.08H187V628h4.38L207,654.3,222.34,628h4.38l.05,37.39Z"/><path class="cls-1" d="M261.81,656.06H241.94l-4.11,9.35h-5.5L249.26,628h5.29l17,37.39h-5.61Zm-1.87-4.27-8.06-18.32-8.07,18.32Z"/><path class="cls-1" d="M273.67,661.13l2-4.16A19.27,19.27,0,0,0,288,661.29c6.46,0,9.24-2.51,9.24-5.76,0-9.14-22.64-3.37-22.64-17.25,0-5.77,4.48-10.69,14.31-10.69a22,22,0,0,1,12,3.32l-1.77,4.27a19.31,19.31,0,0,0-10.25-3c-6.36,0-9.08,2.67-9.08,5.93,0,9.13,22.64,3.42,22.64,17.15,0,5.71-4.59,10.62-14.47,10.62C282.27,665.83,276.66,663.91,273.67,661.13Z"/><path class="cls-1" d="M324.62,628h15.76c12,0,20.18,7.59,20.18,18.69s-8.17,18.7-20.18,18.7H324.62Zm15.44,32.74c9.24,0,15.16-5.66,15.16-14s-5.92-14-15.16-14H330v28.09Z"/><path class="cls-1" d="M395.87,660.76v4.65H368.74V628h26.38v4.65h-21v11.48h18.74v4.54H374.08v12.07Z"/><path class="cls-1" d="M444.79,646.5h5.13v14.58a22.1,22.1,0,0,1-14.15,4.75c-11.48,0-19.92-8.06-19.92-19.12s8.44-19.12,20-19.12c5.93,0,10.95,2,14.37,5.77l-3.31,3.31a14.82,14.82,0,0,0-10.84-4.32c-8.65,0-14.9,6-14.9,14.36s6.25,14.37,14.84,14.37a15.82,15.82,0,0,0,8.76-2.4Z"/><path class="cls-1" d="M487.25,660.76v4.65H460.12V628h26.39v4.65H465.46v11.48h18.75v4.54H465.46v12.07Z"/><path class="cls-1" d="M492.49,661.13l2-4.16a19.22,19.22,0,0,0,12.33,4.32c6.47,0,9.24-2.51,9.24-5.76,0-9.14-22.64-3.37-22.64-17.25,0-5.77,4.49-10.69,14.31-10.69a22,22,0,0,1,12,3.32L518,635.18a19.37,19.37,0,0,0-10.26-3c-6.35,0-9.08,2.67-9.08,5.93,0,9.13,22.65,3.42,22.65,17.15,0,5.71-4.6,10.62-14.48,10.62C501.09,665.83,495.48,663.91,492.49,661.13Z"/><path class="cls-1" d="M536,632.67H523.15V628h30.92v4.65H541.25v32.74H536Z"/><path class="cls-1" d="M581.85,656.06H562l-4.11,9.35h-5.51L569.29,628h5.29l17,37.39H586Zm-16-31.51H563c.11-3.95,2.14-6.52,5.24-6.52,3.41,0,5.12,3.64,7.1,3.64,1.55,0,2.62-1.23,2.72-3.21h2.89c-.11,3.79-2.14,6.36-5.24,6.36-3.41,0-5.12-3.58-7.1-3.58C567.05,621.24,566,622.47,565.88,624.55ZM580,651.79l-8.07-18.32-8.06,18.32Z"/><path class="cls-1" d="M593.54,646.71c0-10.94,8.44-19.12,19.92-19.12s19.82,8.12,19.82,19.12-8.44,19.12-19.82,19.12S593.54,657.66,593.54,646.71Zm34.4,0a14,14,0,0,0-14.48-14.36c-8.38,0-14.57,6.09-14.57,14.36s6.19,14.37,14.57,14.37A14,14,0,0,0,627.94,646.71Z"/><path class="cls-1" d="M683,660.76v4.65H655.82V628H682.2v4.65h-21v11.48h18.75v4.54H661.16v12.07Z"/><path class="cls-1" d="M726.27,665.41l-.06-27.24-13.51,22.7h-2.45l-13.52-22.54v27.08h-5.12V628H696l15.59,26.28L727,628h4.38l0,37.39Z"/><path class="cls-1" d="M772.79,641.05c0,8.12-5.88,13-15.6,13H748v11.33h-5.34V628h14.58C766.91,628,772.79,632.94,772.79,641.05Zm-5.34,0c0-5.34-3.58-8.38-10.42-8.38H748v16.77H757C763.87,649.44,767.45,646.39,767.45,641.05Z"/><path class="cls-1" d="M805.64,665.41l-8.07-11.49c-.75.06-1.55.11-2.35.11H786v11.38h-5.34V628h14.58c9.72,0,15.6,4.92,15.6,13a11.8,11.8,0,0,1-8.23,11.81l8.87,12.55Zm-.16-24.36c0-5.34-3.58-8.38-10.42-8.38H786v16.82h9.08C801.9,649.49,805.48,646.39,805.48,641.05Z"/><path class="cls-1" d="M846.6,660.76v4.65H819.47V628h26.38v4.65h-21v11.48h18.75v4.54H824.81v12.07Z"/><path class="cls-1" d="M851.84,661.13l2-4.16a19.27,19.27,0,0,0,12.34,4.32c6.46,0,9.24-2.51,9.24-5.76,0-9.14-22.64-3.37-22.64-17.25,0-5.77,4.48-10.69,14.31-10.69a22,22,0,0,1,12,3.32l-1.77,4.27a19.31,19.31,0,0,0-10.25-3c-6.36,0-9.08,2.67-9.08,5.93,0,9.13,22.64,3.42,22.64,17.15,0,5.71-4.59,10.62-14.47,10.62C860.44,665.83,854.83,663.91,851.84,661.13Z"/><path class="cls-1" d="M912.24,656.06H892.38l-4.12,9.35h-5.5L899.69,628H905l17,37.39h-5.6Zm-1.87-4.27-8.06-18.32-8.06,18.32Z"/><path class="cls-1" d="M952.52,665.41l-8.07-11.49c-.75.06-1.55.11-2.35.11h-9.24v11.38h-5.34V628H942.1c9.72,0,15.6,4.92,15.6,13a11.81,11.81,0,0,1-8.23,11.81l8.87,12.55Zm-.17-24.36c0-5.34-3.57-8.38-10.41-8.38h-9.08v16.82h9.08C948.78,649.49,952.35,646.39,952.35,641.05Z"/><path class="cls-1" d="M966.35,628h5.34v37.39h-5.34Z"/><path class="cls-1" d="M1006.73,656.06H986.86l-4.11,9.35h-5.5L994.18,628h5.28l17,37.39h-5.61Zm-1.87-4.27-8.07-18.32-8.06,18.32Z"/><path class="cls-1" d="M1022,628h5.35v32.74h20.24v4.65H1022Z"/></g></g></svg>