<?xml version="1.0" encoding="utf-8"?>
<!-- Generator: Adobe Illustrator 26.1.0, SVG Export Plug-In . SVG Version: 6.00 Build 0)  -->
<svg version="1.1" id="Camada_1" xmlns="http://www.w3.org/2000/svg" xmlns:xlink="http://www.w3.org/1999/xlink" x="0px" y="0px"
	 viewBox="0 0 1128 264.2" style="enable-background:new 0 0 1128 264.2;" xml:space="preserve">
<style type="text/css">
	.st0{fill:url(#SVGID_1_);}
	.st1{fill:url(#SVGID_00000060741857922922561660000000449387666402610828_);}
	.st2{fill:url(#SVGID_00000148630616337705649450000012971966460137234845_);}
	.st3{fill:url(#SVGID_00000040570778560051827660000016457913441993837955_);}
	.st4{fill:url(#SVGID_00000163752176267064954820000005137233412707629962_);}
	.st5{fill:url(#SVGID_00000096033011913418708930000011756914891300283310_);}
	.st6{fill:url(#SVGID_00000156564831023551258650000007722589008475894409_);}
	.st7{fill:url(#SVGID_00000028315029849853204620000012577136177066164407_);}
	.st8{fill:url(#SVGID_00000168093612874116091140000016185140677930858678_);}
	.st9{fill:url(#SVGID_00000111881389484874479280000001876533613158779554_);}
	.st10{fill:url(#SVGID_00000138571754138379795380000017134686054708535949_);}
	.st11{fill:url(#SVGID_00000093883932631444057410000011505189446637623229_);}
	.st12{fill:url(#SVGID_00000166665179416654115800000007841268357444092082_);}
	.st13{fill:url(#SVGID_00000012434793123044945010000016108007680499619718_);}
	.st14{fill:url(#SVGID_00000183214032988181495200000003964731860264353727_);}
	.st15{fill:url(#SVGID_00000019643350330753431950000014181584134707491773_);}
	.st16{fill:url(#SVGID_00000057120370123992068930000016284218612089694105_);}
	.st17{fill:url(#SVGID_00000090975747326530543740000011496331096618463927_);}
	.st18{fill:url(#SVGID_00000002372064402055185630000006035311004050588606_);}
	.st19{fill:url(#SVGID_00000123439896264858346360000014664549491816590978_);}
	.st20{fill:url(#SVGID_00000042695747500505318580000000800637011598489236_);}
	.st21{fill:url(#SVGID_00000025420089909796177080000007213233546924674730_);}
	.st22{fill:url(#SVGID_00000125576259922273643430000016607186073249051290_);}
	.st23{fill:url(#SVGID_00000097494025854874111930000008139576230844798362_);}
	.st24{fill:url(#SVGID_00000040556947517445068390000001914089106879340991_);}
	.st25{fill:url(#SVGID_00000157309623028013818030000018076563367927841428_);}
	.st26{fill:url(#SVGID_00000008114622792369214270000008934222459188959640_);}
	.st27{fill:url(#SVGID_00000067220182316341568160000002097834592460974224_);}
	.st28{fill:url(#SVGID_00000106107643253385488610000017908684551534400701_);}
	.st29{fill:url(#SVGID_00000157269580020993097820000002998779830243274151_);}
	.st30{fill:url(#SVGID_00000058565619600271335430000010260175775724394430_);}
	.st31{fill:url(#SVGID_00000152260717079697489320000017578096575512174522_);}
	.st32{fill:url(#SVGID_00000067915166296972291420000006520192656642829696_);}
	.st33{fill:url(#SVGID_00000109011335277073579220000003041544513472023219_);}
	.st34{fill:url(#SVGID_00000107555100018862147670000001931734893498096527_);}
	.st35{fill:url(#SVGID_00000173146131790002919930000005434941776824619701_);}
	.st36{fill:url(#SVGID_00000005244820326915495070000014721570499118798255_);}
	.st37{fill:url(#SVGID_00000047051497355857874500000006861200507924871326_);}
</style>
<g>
	<linearGradient id="SVGID_1_" gradientUnits="userSpaceOnUse" x1="-4.5205" y1="88.8783" x2="1129.4581" y2="449.6897">
		<stop  offset="1.529959e-07" style="stop-color:#0064DE"/>
		<stop  offset="1" style="stop-color:#0D4C99"/>
	</linearGradient>
	<path class="st0" d="M254.5,0.8H76.4C34.2,0.8,0,35,0,77.2v178.1c0,4.5,3.6,8.1,8.1,8.1h246.4c4.5,0,8.1-3.6,8.1-8.1V8.9
		C262.6,4.4,259,0.8,254.5,0.8z M241.6,242.4h-17.5c-9.5,0-17.2-7.7-17.2-17.2v-47c0,0,2.1-8.4,12.3-9.9H151
		c-7.1,0-12.9,5.8-12.9,12.9v61.3h-34.7V92.9c0-9.9,8.1-18,18-18h16.8v62.6h68.7V74.9h34.7V242.4z"/>
	<g>
		
			<linearGradient id="SVGID_00000050659073487891415500000007052695211073443763_" gradientUnits="userSpaceOnUse" x1="26.5617" y1="-8.8086" x2="1160.5404" y2="352.0028">
			<stop  offset="1.529959e-07" style="stop-color:#0064DE"/>
			<stop  offset="1" style="stop-color:#0D4C99"/>
		</linearGradient>
		<path style="fill:url(#SVGID_00000050659073487891415500000007052695211073443763_);" d="M315.3,37.9h11.2v41.8h46V37.9h23.2v112
			h-23.2v-49.6h-37.3c-4.8,0-8.6,3.9-8.6,8.6v41h-23.2V50C303.3,43.3,308.7,37.9,315.3,37.9z"/>
		
			<linearGradient id="SVGID_00000016061523565301514550000009318285153491066538_" gradientUnits="userSpaceOnUse" x1="34.3753" y1="-33.3657" x2="1168.354" y2="327.4457">
			<stop  offset="1.529959e-07" style="stop-color:#0064DE"/>
			<stop  offset="1" style="stop-color:#0D4C99"/>
		</linearGradient>
		<path style="fill:url(#SVGID_00000016061523565301514550000009318285153491066538_);" d="M467.8,37.9l40.2,112h-24.2l-7.4-22.9
			h-43.3l-7.4,22.9h-24.5l37.4-104.6c1.6-4.9,5.3-7.4,10.9-7.4H467.8z M439.2,108.1H470l-15.5-47.6L439.2,108.1z"/>
		
			<linearGradient id="SVGID_00000155130211241095992220000009516175273829567634_" gradientUnits="userSpaceOnUse" x1="44.6583" y1="-65.6837" x2="1178.637" y2="295.1277">
			<stop  offset="1.529959e-07" style="stop-color:#0064DE"/>
			<stop  offset="1" style="stop-color:#0D4C99"/>
		</linearGradient>
		<path style="fill:url(#SVGID_00000155130211241095992220000009516175273829567634_);" d="M587.6,96.2c4.8,1.6,8.4,4.3,10.7,7.7
			c2,3.8,3,9.4,3.5,16.6l1,21.9c0.2,3.5,1.5,5.9,3.6,7.4h-25.2c-1.2-2.1-1.6-4.4-1.8-6.8c-0.5-1.6-0.8-8.1-1-18.9
			c-0.8-13.5-3.3-17.8-16.8-17.8h-24.4v43.5h-22.9V50c0-6.4,5.1-12,11.5-12h42.5c23.2,0,36.1,8.9,36.1,32
			C604.4,84.1,598.3,93.3,587.6,96.2z M565.5,57.4h-28.3v29.5h27c10.9,0,17-4,17-14.8C581.1,61.8,575.7,57.4,565.5,57.4z"/>
		
			<linearGradient id="SVGID_00000165223563876072294620000002961784175244092828_" gradientUnits="userSpaceOnUse" x1="53.2807" y1="-92.7825" x2="1187.2593" y2="268.0289">
			<stop  offset="1.529959e-07" style="stop-color:#0064DE"/>
			<stop  offset="1" style="stop-color:#0D4C99"/>
		</linearGradient>
		<path style="fill:url(#SVGID_00000165223563876072294620000002961784175244092828_);" d="M707.3,93.9c0,27.5-11.9,47.9-33.4,53.7
			c-5.6,1.5-13.5,2.3-23.7,2.3h-37.7V50c0-7.7,3.8-11.9,11.5-12h32.3C691.8,37.9,707.3,58.2,707.3,93.9z M656.3,57.5H635v72.1h18.3
			c22.7,0,30.6-12.2,30.6-35.7C683.9,71.5,677,57.5,656.3,57.5z"/>
		
			<linearGradient id="SVGID_00000029009856369082644780000011121809398737246879_" gradientUnits="userSpaceOnUse" x1="64.2519" y1="-127.2635" x2="1198.2306" y2="233.5479">
			<stop  offset="1.529959e-07" style="stop-color:#0064DE"/>
			<stop  offset="1" style="stop-color:#0D4C99"/>
		</linearGradient>
		<path style="fill:url(#SVGID_00000029009856369082644780000011121809398737246879_);" d="M724.9,37.9h12.4l45.6,76.9V37.9h22.6
			v112h-23.9L736,73v76.9h-22.6V50C713.4,43.5,718.5,37.9,724.9,37.9z"/>
		
			<linearGradient id="SVGID_00000116944880420374932630000010536919238293576324_" gradientUnits="userSpaceOnUse" x1="72.9359" y1="-154.5562" x2="1206.9146" y2="206.2552">
			<stop  offset="1.529959e-07" style="stop-color:#0064DE"/>
			<stop  offset="1" style="stop-color:#0D4C99"/>
		</linearGradient>
		<path style="fill:url(#SVGID_00000116944880420374932630000010536919238293576324_);" d="M813.4,50c0-7.7,3.8-11.9,11.5-12h69.5
			v19.4H836v24h43.7v7.4c0.2,7.7-3.8,11.5-11.9,11.5H836v29h58.5v20.6h-81V50z"/>
		
			<linearGradient id="SVGID_00000100357189954278301130000017233502969575040387_" gradientUnits="userSpaceOnUse" x1="81.4443" y1="-181.2967" x2="1215.423" y2="179.5147">
			<stop  offset="1.529959e-07" style="stop-color:#0064DE"/>
			<stop  offset="1" style="stop-color:#0D4C99"/>
		</linearGradient>
		<path style="fill:url(#SVGID_00000100357189954278301130000017233502969575040387_);" d="M969.4,118.8c0-5.4-3.3-9.1-10.2-11
			c-6.6-2-14.2-4-22.2-6.1C915,96.1,904.1,85.9,904.1,71c0.5-23.6,14.5-35.1,42.2-34.9c26.4,0,40,11.5,41.3,34.8h-12.8
			c-4.8,0-8.1-2.3-10.2-6.6c-3.8-6.4-10.5-9.6-20.3-9.6c-11.9,0.2-17.8,4.6-18.3,13.2c0,7.1,7.1,12.2,21.7,15.5
			c8.4,2,17.3,4.4,26.7,7.7c12.5,4.3,18.4,13.5,17.8,27.7c-1.3,21.9-16.1,32.8-44.5,32.8c-29.7,0-44.6-12.4-45.3-36.7h22.2
			c0.8,11.9,8.4,17.8,23.1,17.8S969.5,128,969.4,118.8z"/>
		
			<linearGradient id="SVGID_00000027596138369829425980000011987366948549048966_" gradientUnits="userSpaceOnUse" x1="90.4388" y1="-209.5652" x2="1224.4175" y2="151.2462">
			<stop  offset="1.529959e-07" style="stop-color:#0064DE"/>
			<stop  offset="1" style="stop-color:#0D4C99"/>
		</linearGradient>
		<path style="fill:url(#SVGID_00000027596138369829425980000011987366948549048966_);" d="M1067.2,118.8c0-5.4-3.3-9.1-10.2-11
			c-6.6-2-14.2-4-22.2-6.1c-21.9-5.6-32.8-15.8-32.8-30.6c0.5-23.6,14.5-35.1,42.2-34.9c26.4,0,40,11.5,41.3,34.8h-12.8
			c-4.8,0-8.1-2.3-10.2-6.6c-3.8-6.4-10.5-9.6-20.3-9.6c-11.9,0.2-17.8,4.6-18.3,13.2c0,7.1,7.1,12.2,21.7,15.5
			c8.4,2,17.3,4.4,26.7,7.7c12.5,4.3,18.4,13.5,17.8,27.7c-1.3,21.9-16.1,32.8-44.5,32.8c-29.7,0-44.6-12.4-45.3-36.7h22.2
			c0.8,11.9,8.4,17.8,23.1,17.8C1060.3,132.6,1067.4,128,1067.2,118.8z"/>
	</g>
	<g>
		
			<linearGradient id="SVGID_00000138563175785110667290000004752648445624027564_" gradientUnits="userSpaceOnUse" x1="-8.5694" y1="101.6034" x2="1125.4093" y2="462.4148">
			<stop  offset="1.529959e-07" style="stop-color:#0064DE"/>
			<stop  offset="1" style="stop-color:#0D4C99"/>
		</linearGradient>
		<path style="fill:url(#SVGID_00000138563175785110667290000004752648445624027564_);" d="M303.3,215.6l1.5-3.2
			c2.2,1.9,5.8,3.4,9.6,3.4c5,0,7.2-1.9,7.2-4.5c0-7.1-17.6-2.6-17.6-13.4c0-4.5,3.5-8.3,11.1-8.3c3.4,0,6.9,0.9,9.3,2.6l-1.4,3.3
			c-2.5-1.6-5.4-2.4-8-2.4c-4.9,0-7,2.1-7,4.6c0,7.1,17.6,2.7,17.6,13.3c0,4.4-3.6,8.3-11.2,8.3
			C309.9,219.3,305.6,217.8,303.3,215.6z"/>
		
			<linearGradient id="SVGID_00000045604196468982991800000003351848175944841372_" gradientUnits="userSpaceOnUse" x1="-6.8147" y1="96.0887" x2="1127.1639" y2="456.9001">
			<stop  offset="1.529959e-07" style="stop-color:#0064DE"/>
			<stop  offset="1" style="stop-color:#0D4C99"/>
		</linearGradient>
		<path style="fill:url(#SVGID_00000045604196468982991800000003351848175944841372_);" d="M331.7,189.9h4.1v29h-4.1V189.9z"/>
		
			<linearGradient id="SVGID_00000087414669279449917070000002006283880504270228_" gradientUnits="userSpaceOnUse" x1="-5.0205" y1="90.4498" x2="1128.9581" y2="451.2611">
			<stop  offset="1.529959e-07" style="stop-color:#0064DE"/>
			<stop  offset="1" style="stop-color:#0D4C99"/>
		</linearGradient>
		<path style="fill:url(#SVGID_00000087414669279449917070000002006283880504270228_);" d="M341.9,215.6l1.5-3.2
			c2.2,1.9,5.8,3.4,9.6,3.4c5,0,7.2-1.9,7.2-4.5c0-7.1-17.6-2.6-17.6-13.4c0-4.5,3.5-8.3,11.1-8.3c3.4,0,6.9,0.9,9.3,2.6l-1.4,3.3
			c-2.5-1.6-5.4-2.4-8-2.4c-4.9,0-7,2.1-7,4.6c0,7.1,17.6,2.7,17.6,13.3c0,4.4-3.6,8.3-11.2,8.3
			C348.6,219.3,344.2,217.8,341.9,215.6z"/>
		
			<linearGradient id="SVGID_00000165925246976847895680000005652900297896454023_" gradientUnits="userSpaceOnUse" x1="-2.3183" y1="81.9572" x2="1131.6603" y2="442.7686">
			<stop  offset="1.529959e-07" style="stop-color:#0064DE"/>
			<stop  offset="1" style="stop-color:#0D4C99"/>
		</linearGradient>
		<path style="fill:url(#SVGID_00000165925246976847895680000005652900297896454023_);" d="M375.6,193.5h-10v-3.6h24v3.6h-10V219
			h-4.1V193.5z"/>
		
			<linearGradient id="SVGID_00000094607720686218614750000000608335353975197084_" gradientUnits="userSpaceOnUse" x1="-0.3151" y1="75.6613" x2="1133.6636" y2="436.4727">
			<stop  offset="1.529959e-07" style="stop-color:#0064DE"/>
			<stop  offset="1" style="stop-color:#0D4C99"/>
		</linearGradient>
		<path style="fill:url(#SVGID_00000094607720686218614750000000608335353975197084_);" d="M415.3,215.4v3.6h-21.1v-29h20.5v3.6
			h-16.3v8.9h14.6v3.5h-14.6v9.4H415.3z"/>
		
			<linearGradient id="SVGID_00000137844410905138836070000016801344742394428064_" gradientUnits="userSpaceOnUse" x1="2.7155" y1="66.1365" x2="1136.6942" y2="426.9479">
			<stop  offset="1.529959e-07" style="stop-color:#0064DE"/>
			<stop  offset="1" style="stop-color:#0D4C99"/>
		</linearGradient>
		<path style="fill:url(#SVGID_00000137844410905138836070000016801344742394428064_);" d="M448.9,219l0-21.2l-10.5,17.6h-1.9
			L426,197.9v21h-4v-29h3.4l12.1,20.4l11.9-20.4h3.4l0,29H448.9z"/>
		
			<linearGradient id="SVGID_00000171682816507023314290000003920389195789081504_" gradientUnits="userSpaceOnUse" x1="5.3266" y1="57.9304" x2="1139.3052" y2="418.7418">
			<stop  offset="1.529959e-07" style="stop-color:#0064DE"/>
			<stop  offset="1" style="stop-color:#0D4C99"/>
		</linearGradient>
		<path style="fill:url(#SVGID_00000171682816507023314290000003920389195789081504_);" d="M480.1,211.7h-15.4l-3.2,7.3h-4.3
			l13.1-29h4.1l13.2,29h-4.4L480.1,211.7z M478.6,208.4l-6.3-14.2l-6.3,14.2H478.6z"/>
		
			<linearGradient id="SVGID_00000025404876327229698470000003677646079465423287_" gradientUnits="userSpaceOnUse" x1="8.5312" y1="47.8587" x2="1142.5099" y2="408.6701">
			<stop  offset="1.529959e-07" style="stop-color:#0064DE"/>
			<stop  offset="1" style="stop-color:#0D4C99"/>
		</linearGradient>
		<path style="fill:url(#SVGID_00000025404876327229698470000003677646079465423287_);" d="M489.3,215.6l1.5-3.2
			c2.2,1.9,5.8,3.4,9.6,3.4c5,0,7.2-1.9,7.2-4.5c0-7.1-17.6-2.6-17.6-13.4c0-4.5,3.5-8.3,11.1-8.3c3.4,0,6.9,0.9,9.3,2.6l-1.4,3.3
			c-2.5-1.6-5.4-2.4-8-2.4c-4.9,0-7,2.1-7,4.6c0,7.1,17.6,2.7,17.6,13.3c0,4.4-3.6,8.3-11.2,8.3C496,219.3,491.6,217.8,489.3,215.6z
			"/>
		
			<linearGradient id="SVGID_00000008106858879030198990000014303756725218471589_" gradientUnits="userSpaceOnUse" x1="11.826" y1="37.5036" x2="1145.8047" y2="398.315">
			<stop  offset="1.529959e-07" style="stop-color:#0064DE"/>
			<stop  offset="1" style="stop-color:#0D4C99"/>
		</linearGradient>
		<path style="fill:url(#SVGID_00000008106858879030198990000014303756725218471589_);" d="M528.8,189.9h12.2
			c9.3,0,15.7,5.9,15.7,14.5c0,8.6-6.3,14.5-15.7,14.5h-12.2V189.9z M540.8,215.4c7.2,0,11.8-4.4,11.8-10.9
			c0-6.5-4.6-10.9-11.8-10.9H533v21.8H540.8z"/>
		
			<linearGradient id="SVGID_00000122687475558601157380000007930071963726584494_" gradientUnits="userSpaceOnUse" x1="15.2111" y1="26.8648" x2="1149.1897" y2="387.6761">
			<stop  offset="1.529959e-07" style="stop-color:#0064DE"/>
			<stop  offset="1" style="stop-color:#0D4C99"/>
		</linearGradient>
		<path style="fill:url(#SVGID_00000122687475558601157380000007930071963726584494_);" d="M584.2,215.4v3.6h-21.1v-29h20.5v3.6
			h-16.3v8.9h14.6v3.5h-14.6v9.4H584.2z"/>
		
			<linearGradient id="SVGID_00000007403144514270734280000008611825841531941021_" gradientUnits="userSpaceOnUse" x1="19.0615" y1="14.7634" x2="1153.0402" y2="375.5748">
			<stop  offset="1.529959e-07" style="stop-color:#0064DE"/>
			<stop  offset="1" style="stop-color:#0D4C99"/>
		</linearGradient>
		<path style="fill:url(#SVGID_00000007403144514270734280000008611825841531941021_);" d="M622.1,204.3h4v11.3
			c-2.9,2.4-6.9,3.7-11,3.7c-8.9,0-15.5-6.3-15.5-14.8c0-8.6,6.6-14.8,15.6-14.8c4.6,0,8.5,1.5,11.2,4.5l-2.6,2.6
			c-2.4-2.3-5.1-3.4-8.4-3.4c-6.7,0-11.6,4.7-11.6,11.2c0,6.4,4.9,11.2,11.5,11.2c2.4,0,4.7-0.5,6.8-1.9V204.3z"/>
		
			<linearGradient id="SVGID_00000024687713904591756610000013766918190641680060_" gradientUnits="userSpaceOnUse" x1="21.7334" y1="6.3662" x2="1155.712" y2="367.1776">
			<stop  offset="1.529959e-07" style="stop-color:#0064DE"/>
			<stop  offset="1" style="stop-color:#0D4C99"/>
		</linearGradient>
		<path style="fill:url(#SVGID_00000024687713904591756610000013766918190641680060_);" d="M655.1,215.4v3.6H634v-29h20.5v3.6h-16.3
			v8.9h14.6v3.5h-14.6v9.4H655.1z"/>
		
			<linearGradient id="SVGID_00000179616946266434971100000002780360459832359060_" gradientUnits="userSpaceOnUse" x1="24.1489" y1="-1.2255" x2="1158.1276" y2="359.5858">
			<stop  offset="1.529959e-07" style="stop-color:#0064DE"/>
			<stop  offset="1" style="stop-color:#0D4C99"/>
		</linearGradient>
		<path style="fill:url(#SVGID_00000179616946266434971100000002780360459832359060_);" d="M659.2,215.6l1.5-3.2
			c2.2,1.9,5.8,3.4,9.6,3.4c5,0,7.2-1.9,7.2-4.5c0-7.1-17.6-2.6-17.6-13.4c0-4.5,3.5-8.3,11.1-8.3c3.4,0,6.9,0.9,9.3,2.6l-1.4,3.3
			c-2.5-1.6-5.4-2.4-8-2.4c-4.9,0-7,2.1-7,4.6c0,7.1,17.6,2.7,17.6,13.3c0,4.4-3.6,8.3-11.2,8.3
			C665.8,219.3,661.5,217.8,659.2,215.6z"/>
		
			<linearGradient id="SVGID_00000147221227150246130460000009984273337168159165_" gradientUnits="userSpaceOnUse" x1="26.8511" y1="-9.7181" x2="1160.8297" y2="351.0933">
			<stop  offset="1.529959e-07" style="stop-color:#0064DE"/>
			<stop  offset="1" style="stop-color:#0D4C99"/>
		</linearGradient>
		<path style="fill:url(#SVGID_00000147221227150246130460000009984273337168159165_);" d="M692.9,193.5h-10v-3.6h24v3.6h-10V219
			h-4.1V193.5z"/>
		
			<linearGradient id="SVGID_00000092442874138165081310000001182763201942028711_" gradientUnits="userSpaceOnUse" x1="29.4674" y1="-17.9409" x2="1163.446" y2="342.8705">
			<stop  offset="1.529959e-07" style="stop-color:#0064DE"/>
			<stop  offset="1" style="stop-color:#0D4C99"/>
		</linearGradient>
		<path style="fill:url(#SVGID_00000092442874138165081310000001182763201942028711_);" d="M728.5,211.7h-15.4l-3.2,7.3h-4.3
			l13.1-29h4.1l13.2,29h-4.4L728.5,211.7z M716.1,187.2h-2.2c0.1-3.1,1.7-5.1,4.1-5.1c2.7,0,4,2.8,5.5,2.8c1.2,0,2-1,2.1-2.5h2.2
			c-0.1,2.9-1.7,4.9-4.1,4.9c-2.7,0-4-2.8-5.5-2.8C717.1,184.7,716.2,185.6,716.1,187.2z M727.1,208.4l-6.3-14.2l-6.3,14.2H727.1z"
			/>
		
			<linearGradient id="SVGID_00000041257318761239594560000017095833826642308263_" gradientUnits="userSpaceOnUse" x1="31.7349" y1="-25.0673" x2="1165.7136" y2="335.7441">
			<stop  offset="1.529959e-07" style="stop-color:#0064DE"/>
			<stop  offset="1" style="stop-color:#0D4C99"/>
		</linearGradient>
		<path style="fill:url(#SVGID_00000041257318761239594560000017095833826642308263_);" d="M737.6,204.4c0-8.5,6.6-14.8,15.5-14.8
			c8.8,0,15.4,6.3,15.4,14.8c0,8.5-6.6,14.8-15.4,14.8C744.2,219.3,737.6,213,737.6,204.4z M764.3,204.4c0-6.4-4.8-11.2-11.2-11.2
			c-6.5,0-11.3,4.7-11.3,11.2c0,6.4,4.8,11.2,11.3,11.2C759.5,215.6,764.3,210.9,764.3,204.4z"/>
		
			<linearGradient id="SVGID_00000068643358695803969280000011192488567336451986_" gradientUnits="userSpaceOnUse" x1="35.7007" y1="-37.5311" x2="1169.6793" y2="323.2803">
			<stop  offset="1.529959e-07" style="stop-color:#0064DE"/>
			<stop  offset="1" style="stop-color:#0D4C99"/>
		</linearGradient>
		<path style="fill:url(#SVGID_00000068643358695803969280000011192488567336451986_);" d="M807,215.4v3.6H786v-29h20.5v3.6h-16.3
			v8.9h14.6v3.5h-14.6v9.4H807z"/>
		
			<linearGradient id="SVGID_00000023276989801346399100000001509652563406944169_" gradientUnits="userSpaceOnUse" x1="38.7313" y1="-47.0558" x2="1172.71" y2="313.7556">
			<stop  offset="1.529959e-07" style="stop-color:#0064DE"/>
			<stop  offset="1" style="stop-color:#0D4C99"/>
		</linearGradient>
		<path style="fill:url(#SVGID_00000023276989801346399100000001509652563406944169_);" d="M840.7,219l0-21.2l-10.5,17.6h-1.9
			l-10.5-17.5v21h-4v-29h3.4l12.1,20.4l11.9-20.4h3.4l0,29H840.7z"/>
		
			<linearGradient id="SVGID_00000041284240289677249120000011193281791026321081_" gradientUnits="userSpaceOnUse" x1="41.6069" y1="-56.0936" x2="1175.5856" y2="304.7178">
			<stop  offset="1.529959e-07" style="stop-color:#0064DE"/>
			<stop  offset="1" style="stop-color:#0D4C99"/>
		</linearGradient>
		<path style="fill:url(#SVGID_00000041284240289677249120000011193281791026321081_);" d="M876.8,200.1c0,6.3-4.6,10.1-12.1,10.1
			h-7.2v8.8h-4.1v-29h11.3C872.2,189.9,876.8,193.7,876.8,200.1z M872.6,200.1c0-4.1-2.8-6.5-8.1-6.5h-7.1v13h7.1
			C869.9,206.6,872.6,204.2,872.6,200.1z"/>
		
			<linearGradient id="SVGID_00000013158616616227798260000014502415073652899749_" gradientUnits="userSpaceOnUse" x1="44.3211" y1="-64.6237" x2="1178.2997" y2="296.1877">
			<stop  offset="1.529959e-07" style="stop-color:#0064DE"/>
			<stop  offset="1" style="stop-color:#0D4C99"/>
		</linearGradient>
		<path style="fill:url(#SVGID_00000013158616616227798260000014502415073652899749_);" d="M902.3,219L896,210
			c-0.6,0-1.2,0.1-1.8,0.1H887v8.8h-4.1v-29h11.3c7.5,0,12.1,3.8,12.1,10.1c0,4.5-2.3,7.7-6.4,9.2l6.9,9.7H902.3z M902.2,200.1
			c0-4.1-2.8-6.5-8.1-6.5H887v13.1h7.1C899.4,206.6,902.2,204.2,902.2,200.1z"/>
		
			<linearGradient id="SVGID_00000045578237715928732810000016165276764563053230_" gradientUnits="userSpaceOnUse" x1="47.3806" y1="-74.2392" x2="1181.3591" y2="286.5721">
			<stop  offset="1.529959e-07" style="stop-color:#0064DE"/>
			<stop  offset="1" style="stop-color:#0D4C99"/>
		</linearGradient>
		<path style="fill:url(#SVGID_00000045578237715928732810000016165276764563053230_);" d="M934.1,215.4v3.6H913v-29h20.5v3.6h-16.3
			v8.9h14.6v3.5h-14.6v9.4H934.1z"/>
		
			<linearGradient id="SVGID_00000091706282373910951940000012157431434228530077_" gradientUnits="userSpaceOnUse" x1="49.7961" y1="-81.8309" x2="1183.7748" y2="278.9805">
			<stop  offset="1.529959e-07" style="stop-color:#0064DE"/>
			<stop  offset="1" style="stop-color:#0D4C99"/>
		</linearGradient>
		<path style="fill:url(#SVGID_00000091706282373910951940000012157431434228530077_);" d="M938.1,215.6l1.5-3.2
			c2.2,1.9,5.8,3.4,9.6,3.4c5,0,7.2-1.9,7.2-4.5c0-7.1-17.6-2.6-17.6-13.4c0-4.5,3.5-8.3,11.1-8.3c3.4,0,6.9,0.9,9.3,2.6l-1.4,3.3
			c-2.5-1.6-5.4-2.4-8-2.4c-4.9,0-7,2.1-7,4.6c0,7.1,17.6,2.7,17.6,13.3c0,4.4-3.6,8.3-11.2,8.3
			C944.8,219.3,940.5,217.8,938.1,215.6z"/>
		
			<linearGradient id="SVGID_00000106843645799514273370000004413458070146218913_" gradientUnits="userSpaceOnUse" x1="51.749" y1="-87.9688" x2="1185.7277" y2="272.8426">
			<stop  offset="1.529959e-07" style="stop-color:#0064DE"/>
			<stop  offset="1" style="stop-color:#0D4C99"/>
		</linearGradient>
		<path style="fill:url(#SVGID_00000106843645799514273370000004413458070146218913_);" d="M985,211.7h-15.4l-3.2,7.3h-4.3l13.1-29
			h4.1l13.2,29h-4.4L985,211.7z M983.6,208.4l-6.3-14.2l-6.3,14.2H983.6z"/>
		
			<linearGradient id="SVGID_00000054960044165516629450000005638333379684098972_" gradientUnits="userSpaceOnUse" x1="54.8041" y1="-97.5703" x2="1188.7827" y2="263.2411">
			<stop  offset="1.529959e-07" style="stop-color:#0064DE"/>
			<stop  offset="1" style="stop-color:#0D4C99"/>
		</linearGradient>
		<path style="fill:url(#SVGID_00000054960044165516629450000005638333379684098972_);" d="M1016.3,219l-6.3-8.9
			c-0.6,0-1.2,0.1-1.8,0.1h-7.2v8.8h-4.1v-29h11.3c7.5,0,12.1,3.8,12.1,10.1c0,4.5-2.3,7.7-6.4,9.2l6.9,9.7H1016.3z M1016.2,200.1
			c0-4.1-2.8-6.5-8.1-6.5h-7.1v13.1h7.1C1013.4,206.6,1016.2,204.2,1016.2,200.1z"/>
		
			<linearGradient id="SVGID_00000022538702746838352050000011754821686529097147_" gradientUnits="userSpaceOnUse" x1="57.1125" y1="-104.8252" x2="1191.0911" y2="255.9862">
			<stop  offset="1.529959e-07" style="stop-color:#0064DE"/>
			<stop  offset="1" style="stop-color:#0D4C99"/>
		</linearGradient>
		<path style="fill:url(#SVGID_00000022538702746838352050000011754821686529097147_);" d="M1027,189.9h4.1v29h-4.1V189.9z"/>
		
			<linearGradient id="SVGID_00000055680864240997464490000016621243244781655685_" gradientUnits="userSpaceOnUse" x1="58.4925" y1="-109.1624" x2="1192.4711" y2="251.649">
			<stop  offset="1.529959e-07" style="stop-color:#0064DE"/>
			<stop  offset="1" style="stop-color:#0D4C99"/>
		</linearGradient>
		<path style="fill:url(#SVGID_00000055680864240997464490000016621243244781655685_);" d="M1058.4,211.7H1043l-3.2,7.3h-4.3
			l13.1-29h4.1l13.2,29h-4.4L1058.4,211.7z M1056.9,208.4l-6.3-14.2l-6.3,14.2H1056.9z"/>
		
			<linearGradient id="SVGID_00000045598362985501747410000014273351221688076184_" gradientUnits="userSpaceOnUse" x1="61.0846" y1="-117.309" x2="1195.0632" y2="243.5024">
			<stop  offset="1.529959e-07" style="stop-color:#0064DE"/>
			<stop  offset="1" style="stop-color:#0D4C99"/>
		</linearGradient>
		<path style="fill:url(#SVGID_00000045598362985501747410000014273351221688076184_);" d="M1070.3,189.9h4.1v25.4h15.7v3.6h-19.9
			V189.9z"/>
	</g>
	<g>
		<g>
			
				<linearGradient id="SVGID_00000070833193795634383400000006159479524408254085_" gradientUnits="userSpaceOnUse" x1="107.9834" y1="-264.7055" x2="1241.962" y2="96.1059">
				<stop  offset="1.529959e-07" style="stop-color:#0064DE"/>
				<stop  offset="1" style="stop-color:#0D4C99"/>
			</linearGradient>
			<path style="fill:url(#SVGID_00000070833193795634383400000006159479524408254085_);" d="M1110.3,71.9c-9.7,0-17.7-7.9-17.7-17.7
				s7.9-17.7,17.7-17.7c9.7,0,17.7,7.9,17.7,17.7S1120.1,71.9,1110.3,71.9z M1110.3,39.9c-7.9,0-14.4,6.4-14.4,14.4
				s6.4,14.4,14.4,14.4c7.9,0,14.4-6.4,14.4-14.4S1118.3,39.9,1110.3,39.9z"/>
		</g>
		<g>
			
				<linearGradient id="SVGID_00000031182211030790159480000005557663765236841370_" gradientUnits="userSpaceOnUse" x1="107.7387" y1="-263.9362" x2="1241.7173" y2="96.8752">
				<stop  offset="1.529959e-07" style="stop-color:#0064DE"/>
				<stop  offset="1" style="stop-color:#0D4C99"/>
			</linearGradient>
			<path style="fill:url(#SVGID_00000031182211030790159480000005557663765236841370_);" d="M1102.1,64.1V44.4h8.7
				c1.8,0,3.1,0.2,4,0.5c0.9,0.4,1.6,1,2.2,1.9c0.5,0.9,0.8,1.9,0.8,3c0,1.4-0.5,2.6-1.4,3.5c-0.9,1-2.3,1.6-4.2,1.8
				c0.7,0.3,1.2,0.7,1.6,1c0.8,0.7,1.5,1.6,2.2,2.6l3.4,5.4h-3.3l-2.6-4.1c-0.8-1.2-1.4-2.1-1.9-2.7c-0.5-0.6-0.9-1.1-1.3-1.3
				c-0.4-0.3-0.8-0.4-1.2-0.5c-0.3-0.1-0.8-0.1-1.5-0.1h-3v8.8H1102.1z M1104.7,53.1h5.6c1.2,0,2.1-0.1,2.8-0.4
				c0.7-0.2,1.2-0.6,1.5-1.2c0.3-0.5,0.5-1.1,0.5-1.8c0-0.9-0.3-1.7-1-2.3c-0.7-0.6-1.7-0.9-3.2-0.9h-6.2V53.1z"/>
		</g>
	</g>
</g>
</svg>
